<svg width="1964" height="800" viewBox="0 0 1964 800" fill="none" xmlns="http://www.w3.org/2000/svg">
<path d="M300 660C277.909 660 260 642.091 260 620C260 597.909 277.909 580 300 580L300 660ZM428.284 371.716L511.716 455.147L455.147 511.716L371.716 428.284L428.284 371.716ZM426.863 660L300 660L300 580L426.863 580L426.863 660ZM511.716 455.147C587.312 530.743 533.771 660 426.863 660L426.863 580C462.499 580 480.346 536.914 455.147 511.716L511.716 455.147Z" fill="#FF0149"/>
<path d="M500 140C522.091 140 540 157.909 540 180C540 202.091 522.091 220 500 220L500 140ZM371.716 428.284L288.284 344.853L344.853 288.284L428.284 371.716L371.716 428.284ZM373.137 140L500 140L500 220L373.137 220L373.137 140ZM288.284 344.853C212.688 269.257 266.229 140 373.137 140L373.137 220C337.501 220 319.654 263.086 344.853 288.284L288.284 344.853Z" fill="#FF0149"/>
<path d="M660 300C660 277.909 642.091 260 620 260C597.909 260 580 277.909 580 300L660 300ZM371.716 428.284L455.147 511.716L511.716 455.147L428.284 371.716L371.716 428.284ZM660 426.863L660 300L580 300L580 426.863L660 426.863ZM455.147 511.716C530.743 587.312 660 533.771 660 426.863L580 426.863C580 462.499 536.914 480.346 511.716 455.147L455.147 511.716Z" fill="black"/>
<path d="M140 500C140 522.091 157.909 540 180 540C202.091 540 220 522.091 220 500L140 500ZM428.284 371.716L344.853 288.284L288.284 344.853L371.716 428.284L428.284 371.716ZM140 373.137L140 500L220 500L220 373.137L140 373.137ZM344.853 288.284C269.257 212.688 140 266.229 140 373.137L220 373.137C220 337.501 263.086 319.654 288.284 344.853L344.853 288.284Z" fill="black"/>
<g clip-path="url(#clip0_72_232)">
<ellipse cx="620" cy="180" rx="40" ry="40" transform="rotate(-180 620 180)" fill="#FF0149"/>
</g>
<g clip-path="url(#clip1_72_232)">
<ellipse cx="180" cy="620" rx="40" ry="40" fill="#FF0149"/>
</g>
<path d="M1004.57 260C1020.65 260 1033.69 273.037 1033.69 289.12V482.8C1033.69 500.473 1019.36 514.8 1001.69 514.8H1000.41C990.827 514.8 981.753 510.51 975.675 503.108L858.24 360.1V485.68C858.24 501.763 845.203 514.8 829.12 514.8C813.037 514.8 800 501.763 800 485.68V292C800 274.327 814.327 260 832 260H833.619C843.213 260 852.3 264.304 858.378 271.727L975.448 414.7V289.12C975.448 273.037 988.485 260 1004.57 260Z" fill="black"/>
<path d="M1234.16 467.48C1247.22 467.48 1257.82 478.073 1257.82 491.14C1257.82 504.207 1247.22 514.8 1234.16 514.8H1097.69C1080.01 514.8 1065.69 500.473 1065.69 482.8V292C1065.69 274.327 1080.01 260 1097.69 260H1229.42C1242.49 260 1253.08 270.593 1253.08 283.66C1253.08 296.727 1242.49 307.32 1229.42 307.32H1124.29V362.648H1214.5C1227.17 362.648 1237.43 372.915 1237.43 385.58C1237.43 398.245 1227.17 408.512 1214.5 408.512H1124.29V467.48H1234.16Z" fill="black"/>
<path d="M1345.14 380.4L1392.9 476.576C1397.16 483.586 1404.78 487.864 1412.98 487.864C1421.19 487.864 1428.8 483.586 1433.06 476.576L1480.82 380.4V487.136C1480.82 502.414 1493.2 514.8 1508.48 514.8C1523.76 514.8 1536.15 502.414 1536.15 487.136V291.165C1536.15 273.953 1522.19 260 1504.98 260C1494.05 260 1483.92 265.724 1478.28 275.086L1412.98 406.4L1347.68 275.086C1342.04 265.724 1331.91 260 1320.98 260C1303.77 260 1289.82 273.953 1289.82 291.165V487.136C1289.82 502.414 1302.2 514.8 1317.48 514.8C1332.76 514.8 1345.14 502.414 1345.14 487.136V380.4Z" fill="black"/>
<path d="M1754.68 460.2H1636.38L1620.8 497.897C1616.57 508.127 1606.6 514.8 1595.53 514.8C1575.72 514.8 1562.48 494.405 1570.55 476.315L1655.1 286.615C1662.31 270.427 1678.38 260 1696.1 260C1713.8 260 1729.85 270.405 1737.08 286.566L1821.51 475.393C1829.79 493.905 1816.24 514.8 1795.97 514.8C1784.64 514.8 1774.43 507.973 1770.1 497.506L1754.68 460.2ZM1736.12 415.428L1695.72 317.876L1655.31 415.428H1736.12Z" fill="black"/>
<path d="M831.602 556.8C831.466 555.096 830.827 553.766 829.685 552.811C828.56 551.857 826.847 551.38 824.545 551.38C823.08 551.38 821.878 551.559 820.94 551.917C820.02 552.257 819.338 552.726 818.895 553.323C818.452 553.919 818.222 554.601 818.205 555.368C818.17 555.999 818.281 556.57 818.537 557.081C818.81 557.576 819.236 558.027 819.815 558.436C820.395 558.828 821.136 559.186 822.04 559.51C822.943 559.834 824.017 560.124 825.261 560.38L829.557 561.3C832.455 561.914 834.935 562.723 836.997 563.729C839.06 564.735 840.747 565.919 842.06 567.283C843.372 568.63 844.335 570.147 844.949 571.834C845.58 573.522 845.903 575.363 845.92 577.357C845.903 580.8 845.043 583.715 843.338 586.101C841.634 588.488 839.196 590.303 836.026 591.547C832.872 592.792 829.08 593.414 824.648 593.414C820.097 593.414 816.125 592.74 812.733 591.394C809.358 590.047 806.733 587.976 804.858 585.181C803 582.368 802.063 578.772 802.045 574.391H815.545C815.631 575.993 816.031 577.34 816.747 578.431C817.463 579.522 818.469 580.348 819.764 580.911C821.077 581.473 822.636 581.755 824.443 581.755C825.96 581.755 827.23 581.567 828.253 581.192C829.276 580.817 830.051 580.297 830.58 579.632C831.108 578.968 831.381 578.209 831.398 577.357C831.381 576.556 831.116 575.857 830.605 575.26C830.111 574.647 829.293 574.101 828.151 573.624C827.009 573.13 825.466 572.669 823.523 572.243L818.307 571.118C813.67 570.113 810.014 568.434 807.338 566.081C804.679 563.712 803.358 560.482 803.375 556.391C803.358 553.067 804.244 550.161 806.034 547.672C807.841 545.167 810.338 543.215 813.526 541.817C816.73 540.419 820.403 539.721 824.545 539.721C828.773 539.721 832.429 540.428 835.514 541.843C838.599 543.257 840.977 545.252 842.648 547.826C844.335 550.382 845.188 553.374 845.205 556.8H831.602Z" fill="black"/>
<path d="M998.339 551.891V540.436H1043.85V551.891H1028.1V592.8H1014.09V551.891H998.339Z" fill="black"/>
<path d="M1229.16 540.436H1243.37V573.982C1243.37 577.971 1242.42 581.422 1240.51 584.337C1238.62 587.235 1235.97 589.476 1232.58 591.061C1229.19 592.63 1225.25 593.414 1220.77 593.414C1216.25 593.414 1212.3 592.63 1208.91 591.061C1205.51 589.476 1202.87 587.235 1200.98 584.337C1199.1 581.422 1198.17 577.971 1198.17 573.982V540.436H1212.38V572.755C1212.38 574.374 1212.74 575.823 1213.46 577.101C1214.17 578.363 1215.16 579.351 1216.42 580.067C1217.7 580.783 1219.15 581.141 1220.77 581.141C1222.41 581.141 1223.85 580.783 1225.12 580.067C1226.38 579.351 1227.37 578.363 1228.08 577.101C1228.8 575.823 1229.16 574.374 1229.16 572.755V540.436Z" fill="black"/>
<path d="M1418.71 592.8H1398.56V540.436H1418.51C1423.89 540.436 1428.55 541.485 1432.47 543.581C1436.4 545.661 1439.44 548.661 1441.57 552.581C1443.72 556.485 1444.79 561.164 1444.79 566.618C1444.79 572.073 1443.73 576.76 1441.59 580.681C1439.46 584.584 1436.45 587.584 1432.54 589.681C1428.64 591.76 1424.03 592.8 1418.71 592.8ZM1412.78 580.732H1418.2C1420.79 580.732 1423 580.314 1424.82 579.479C1426.66 578.644 1428.06 577.203 1429.02 575.158C1429.99 573.113 1430.47 570.266 1430.47 566.618C1430.47 562.971 1429.98 560.124 1428.99 558.078C1428.02 556.033 1426.59 554.593 1424.69 553.757C1422.82 552.922 1420.52 552.505 1417.79 552.505H1412.78V580.732Z" fill="black"/>
<path d="M1614.18 540.436V592.8H1599.96V540.436H1614.18Z" fill="black"/>
<path d="M1820.08 566.618C1820.08 572.448 1818.95 577.365 1816.68 581.371C1814.42 585.36 1811.36 588.385 1807.5 590.448C1803.65 592.493 1799.36 593.516 1794.62 593.516C1789.84 593.516 1785.53 592.485 1781.68 590.422C1777.84 588.343 1774.79 585.309 1772.53 581.32C1770.28 577.314 1769.15 572.414 1769.15 566.618C1769.15 560.789 1770.28 555.88 1772.53 551.891C1774.79 547.885 1777.84 544.86 1781.68 542.814C1785.53 540.752 1789.84 539.721 1794.62 539.721C1799.36 539.721 1803.65 540.752 1807.5 542.814C1811.36 544.86 1814.42 547.885 1816.68 551.891C1818.95 555.88 1820.08 560.789 1820.08 566.618ZM1805.46 566.618C1805.46 563.482 1805.04 560.84 1804.21 558.692C1803.39 556.527 1802.17 554.891 1800.55 553.783C1798.95 552.658 1796.97 552.096 1794.62 552.096C1792.27 552.096 1790.28 552.658 1788.66 553.783C1787.06 554.891 1785.84 556.527 1785 558.692C1784.19 560.84 1783.78 563.482 1783.78 566.618C1783.78 569.755 1784.19 572.405 1785 574.57C1785.84 576.718 1787.06 578.354 1788.66 579.479C1790.28 580.587 1792.27 581.141 1794.62 581.141C1796.97 581.141 1798.95 580.587 1800.55 579.479C1802.17 578.354 1803.39 576.718 1804.21 574.57C1805.04 572.405 1805.46 569.755 1805.46 566.618Z" fill="black"/>
<defs>
<clipPath id="clip0_72_232">
<rect width="260" height="260" fill="white" transform="translate(660 400) rotate(-180)"/>
</clipPath>
<clipPath id="clip1_72_232">
<rect width="260" height="260" fill="white" transform="translate(140 400)"/>
</clipPath>
</defs>
</svg>
